<svg width="516" height="160" viewBox="0 0 516 160" fill="none" xmlns="http://www.w3.org/2000/svg">
<path d="M140.6 114H149.528V80.88H182.36V114H191.192V43.632H182.36V73.104H149.528V43.632H140.6V114ZM225.804 115.344C233.004 115.344 238.188 111.504 243.084 105.84H243.276L244.044 114H251.244V61.872H242.508V98.928C237.612 105.072 233.772 107.664 228.492 107.664C221.58 107.664 218.604 103.536 218.604 93.84V61.872H209.868V94.896C209.868 108.24 214.86 115.344 225.804 115.344ZM287.476 138C303.508 138 313.78 129.744 313.78 120.048C313.78 111.408 307.732 107.664 295.636 107.664H285.46C278.452 107.664 276.244 105.264 276.244 101.904C276.244 99.12 277.78 97.296 279.604 95.76C282.004 96.912 284.884 97.488 287.38 97.488C298.036 97.488 306.484 90.576 306.484 79.44C306.484 74.928 304.756 71.088 302.26 68.688H312.916V61.872H294.772C292.948 61.2 290.356 60.624 287.38 60.624C276.82 60.624 267.796 67.728 267.796 79.248C267.796 85.488 271.252 90.48 274.708 93.264V93.648C271.924 95.568 268.852 98.928 268.852 103.248C268.852 107.376 270.868 110.16 273.556 111.888V112.272C268.756 115.344 265.876 119.664 265.876 124.08C265.876 133.008 274.708 138 287.476 138ZM287.38 91.632C281.332 91.632 276.244 86.736 276.244 79.248C276.244 71.472 281.236 66.96 287.38 66.96C293.524 66.96 298.516 71.568 298.516 79.248C298.516 86.736 293.428 91.632 287.38 91.632ZM288.628 132.048C279.22 132.048 273.556 128.496 273.556 122.832C273.556 119.856 275.092 116.688 278.836 114C281.236 114.672 283.636 114.864 285.652 114.864H294.676C301.492 114.864 305.236 116.496 305.236 121.392C305.236 126.768 298.708 132.048 288.628 132.048ZM325.056 114H333.792V76.176C338.976 70.992 342.72 68.208 348 68.208C354.912 68.208 357.888 72.336 357.888 82.128V114H366.72V80.976C366.72 67.728 361.728 60.624 350.784 60.624C343.584 60.624 338.304 64.56 333.504 69.264L333.792 58.512V37.68H325.056V114ZM405.352 115.344C412.456 115.344 417.928 112.944 422.536 109.968L419.368 104.112C415.528 106.704 411.4 108.336 406.408 108.336C396.424 108.336 389.704 101.136 389.032 90.096H424.168C424.456 88.752 424.552 86.928 424.552 85.104C424.552 70.128 417.064 60.624 403.816 60.624C391.816 60.624 380.392 71.088 380.392 88.08C380.392 105.168 391.432 115.344 405.352 115.344ZM388.936 83.76C390.088 73.488 396.616 67.632 403.912 67.632C412.168 67.632 416.872 73.296 416.872 83.76H388.936ZM452.076 115.344C464.364 115.344 470.988 108.336 470.988 99.792C470.988 89.904 462.732 86.832 455.148 83.952C449.196 81.84 443.916 79.92 443.916 74.928C443.916 70.896 446.892 67.44 453.516 67.44C458.124 67.44 461.868 69.456 465.42 72.048L469.644 66.48C465.612 63.216 459.852 60.624 453.42 60.624C442.092 60.624 435.468 67.056 435.468 75.312C435.468 84.24 443.436 87.696 450.636 90.48C456.396 92.592 462.636 94.992 462.636 100.272C462.636 104.88 459.18 108.528 452.268 108.528C446.028 108.528 441.42 105.936 436.908 102.288L432.588 108.144C437.484 112.176 444.684 115.344 452.076 115.344Z" fill="#D8E1F4"/>
<path d="M66.5 26H83.125H66.5ZM66.5 28.2041H85.5H66.5ZM64.125 30.4082H87.875H64.125ZM61.75 32.6122H87.875H61.75ZM61.75 34.8163H90.25H61.75ZM61.75 37.0204H90.25H61.75ZM61.75 39.2245H90.25H61.75ZM59.375 41.4286H92.625H59.375ZM59.375 43.6327H92.625H59.375ZM59.375 45.8367H92.625H59.375ZM59.375 48.0408H92.625H59.375ZM59.375 50.2449H92.625H59.375ZM59.375 52.449H92.625H59.375ZM61.75 54.6531H90.25H61.75ZM61.75 56.8571H90.25H61.75ZM61.75 59.0612H90.25H61.75ZM61.75 61.2653H90.25H61.75ZM64.125 63.4694H90.25H64.125ZM64.125 65.6735H90.25H64.125ZM64.125 67.8775H90.25H64.125ZM64.125 70.0816H87.875H64.125ZM64.125 72.2857H87.875H64.125ZM64.125 74.4898H87.875H64.125ZM64.125 76.6939H87.875H64.125ZM64.125 78.898H87.875H64.125ZM66.5 81.102H85.5H66.5ZM66.5 83.3061H85.5H66.5ZM66.5 85.5102H85.5H66.5ZM68.875 87.7143H83.125H68.875ZM68.875 89.9184H83.125H68.875ZM68.875 92.1224H83.125H68.875ZM71.25 94.3265H83.125H71.25ZM71.25 96.5306H78.375H71.25ZM59.375 103.143H64.125H59.375ZM87.875 103.143H90.25H87.875ZM59.375 105.347H66.5H59.375ZM85.5 105.347H90.25H85.5ZM59.375 107.551H68.875H59.375ZM83.125 107.551H90.25H83.125ZM59.375 109.755H90.25H59.375ZM59.375 111.959H92.625H59.375ZM57 114.163H92.625H57ZM57 116.367H95H57ZM57 118.571H68.875H57ZM71.25 118.571H85.5H71.25ZM87.875 118.571H95H87.875ZM57 120.776H68.875H57ZM71.25 120.776H85.5H71.25ZM87.875 120.776H95H87.875ZM57 122.98H95H57ZM57 125.184H92.625H57ZM59.375 127.388H92.625H59.375ZM61.75 129.592H90.25H61.75ZM64.125 131.796H87.875H64.125ZM68.875 134H83.125Z" fill="#D8E1F4"/>
<path d="M68.875 134H83.125M66.5 26H83.125H66.5ZM66.5 28.2041H85.5H66.5ZM64.125 30.4082H87.875H64.125ZM61.75 32.6122H87.875H61.75ZM61.75 34.8163H90.25H61.75ZM61.75 37.0204H90.25H61.75ZM61.75 39.2245H90.25H61.75ZM59.375 41.4286H92.625H59.375ZM59.375 43.6327H92.625H59.375ZM59.375 45.8367H92.625H59.375ZM59.375 48.0408H92.625H59.375ZM59.375 50.2449H92.625H59.375ZM59.375 52.449H92.625H59.375ZM61.75 54.6531H90.25H61.75ZM61.75 56.8571H90.25H61.75ZM61.75 59.0612H90.25H61.75ZM61.75 61.2653H90.25H61.75ZM64.125 63.4694H90.25H64.125ZM64.125 65.6735H90.25H64.125ZM64.125 67.8775H90.25H64.125ZM64.125 70.0816H87.875H64.125ZM64.125 72.2857H87.875H64.125ZM64.125 74.4898H87.875H64.125ZM64.125 76.6939H87.875H64.125ZM64.125 78.898H87.875H64.125ZM66.5 81.102H85.5H66.5ZM66.5 83.3061H85.5H66.5ZM66.5 85.5102H85.5H66.5ZM68.875 87.7143H83.125H68.875ZM68.875 89.9184H83.125H68.875ZM68.875 92.1224H83.125H68.875ZM71.25 94.3265H83.125H71.25ZM71.25 96.5306H78.375H71.25ZM59.375 103.143H64.125H59.375ZM87.875 103.143H90.25H87.875ZM59.375 105.347H66.5H59.375ZM85.5 105.347H90.25H85.5ZM59.375 107.551H68.875H59.375ZM83.125 107.551H90.25H83.125ZM59.375 109.755H90.25H59.375ZM59.375 111.959H92.625H59.375ZM57 114.163H92.625H57ZM57 116.367H95H57ZM57 118.571H68.875H57ZM71.25 118.571H85.5H71.25ZM87.875 118.571H95H87.875ZM57 120.776H68.875H57ZM71.25 120.776H85.5H71.25ZM87.875 120.776H95H87.875ZM57 122.98H95H57ZM57 125.184H92.625H57ZM59.375 127.388H92.625H59.375ZM61.75 129.592H90.25H61.75ZM64.125 131.796H87.875H64.125Z" stroke="#D8E1F4" stroke-width="3"/>
</svg>
