<svg width="100" height="26" viewBox="0 0 100 26" fill="none" xmlns="http://www.w3.org/2000/svg">
<path d="M39 0H37V26H39V0Z" fill="white"/>
<path d="M52.898 21H56.156L57.614 14.412C57.812 13.386 58.01 12.342 58.19 11.334H58.262C58.424 12.342 58.604 13.386 58.838 14.412L60.314 21H63.644L66.11 7.68H63.59L62.51 14.178C62.33 15.582 62.114 17.004 61.934 18.444H61.844C61.538 17.004 61.286 15.564 60.998 14.178L59.45 7.68H57.164L55.634 14.178C55.346 15.582 55.058 17.004 54.788 18.444H54.716C54.5 17.004 54.302 15.582 54.086 14.178L53.042 7.68H50.324L52.898 21ZM68.2887 21H70.9527V7.68H68.2887V21ZM74.4101 21H77.0741V17.256L78.8201 15.024L82.2761 21H85.1741L80.3861 12.918L84.4721 7.68H81.5381L77.1101 13.458H77.0741V7.68H74.4101V21ZM86.93 21H89.594V7.68H86.93V21Z" fill="white"/>
<path d="M15 2H18.5H15ZM15 2.46939H19H15ZM14.5 2.93878H19.5H14.5ZM14 3.40816H19.5H14ZM14 3.87755H20H14ZM14 4.34694H20H14ZM14 4.81633H20H14ZM13.5 5.28571H20.5H13.5ZM13.5 5.7551H20.5H13.5ZM13.5 6.22449H20.5H13.5ZM13.5 6.69388H20.5H13.5ZM13.5 7.16327H20.5H13.5ZM13.5 7.63265H20.5H13.5ZM14 8.10204H20H14ZM14 8.57143H20H14ZM14 9.04082H20H14ZM14 9.5102H20H14ZM14.5 9.97959H20H14.5ZM14.5 10.449H20H14.5ZM14.5 10.9184H20H14.5ZM14.5 11.3878H19.5H14.5ZM14.5 11.8571H19.5H14.5ZM14.5 12.3265H19.5H14.5ZM14.5 12.7959H19.5H14.5ZM14.5 13.2653H19.5H14.5ZM15 13.7347H19H15ZM15 14.2041H19H15ZM15 14.6735H19H15ZM15.5 15.1429H18.5H15.5ZM15.5 15.6122H18.5H15.5ZM15.5 16.0816H18.5H15.5ZM16 16.551H18.5H16ZM16 17.0204H17.5H16ZM13.5 18.4286H14.5H13.5ZM19.5 18.4286H20H19.5ZM13.5 18.898H15H13.5ZM19 18.898H20H19ZM13.5 19.3673H15.5H13.5ZM18.5 19.3673H20H18.5ZM13.5 19.8367H20H13.5ZM13.5 20.3061H20.5H13.5ZM13 20.7755H20.5H13ZM13 21.2449H21H13ZM13 21.7143H15.5H13ZM16 21.7143H19H16ZM19.5 21.7143H21H19.5ZM13 22.1837H15.5H13ZM16 22.1837H19H16ZM19.5 22.1837H21H19.5ZM13 22.6531H21H13ZM13 23.1224H20.5H13ZM13.5 23.5918H20.5H13.5ZM14 24.0612H20H14ZM14.5 24.5306H19.5H14.5ZM15.5 25H18.5Z" fill="white"/>
<path d="M15.5 25H18.5M15 2H18.5H15ZM15 2.46939H19H15ZM14.5 2.93878H19.5H14.5ZM14 3.40816H19.5H14ZM14 3.87755H20H14ZM14 4.34694H20H14ZM14 4.81633H20H14ZM13.5 5.28571H20.5H13.5ZM13.5 5.7551H20.5H13.5ZM13.5 6.22449H20.5H13.5ZM13.5 6.69388H20.5H13.5ZM13.5 7.16327H20.5H13.5ZM13.5 7.63265H20.5H13.5ZM14 8.10204H20H14ZM14 8.57143H20H14ZM14 9.04082H20H14ZM14 9.5102H20H14ZM14.5 9.97959H20H14.5ZM14.5 10.449H20H14.5ZM14.5 10.9184H20H14.5ZM14.5 11.3878H19.5H14.5ZM14.5 11.8571H19.5H14.5ZM14.5 12.3265H19.5H14.5ZM14.5 12.7959H19.5H14.5ZM14.5 13.2653H19.5H14.5ZM15 13.7347H19H15ZM15 14.2041H19H15ZM15 14.6735H19H15ZM15.5 15.1429H18.5H15.5ZM15.5 15.6122H18.5H15.5ZM15.5 16.0816H18.5H15.5ZM16 16.551H18.5H16ZM16 17.0204H17.5H16ZM13.5 18.4286H14.5H13.5ZM19.5 18.4286H20H19.5ZM13.5 18.898H15H13.5ZM19 18.898H20H19ZM13.5 19.3673H15.5H13.5ZM18.5 19.3673H20H18.5ZM13.5 19.8367H20H13.5ZM13.5 20.3061H20.5H13.5ZM13 20.7755H20.5H13ZM13 21.2449H21H13ZM13 21.7143H15.5H13ZM16 21.7143H19H16ZM19.5 21.7143H21H19.5ZM13 22.1837H15.5H13ZM16 22.1837H19H16ZM19.5 22.1837H21H19.5ZM13 22.6531H21H13ZM13 23.1224H20.5H13ZM13.5 23.5918H20.5H13.5ZM14 24.0612H20H14ZM14.5 24.5306H19.5H14.5Z" stroke="white"/>
</svg>
