<svg width="171" height="27" viewBox="0 0 171 27" fill="none" xmlns="http://www.w3.org/2000/svg">
<path fill-rule="evenodd" clip-rule="evenodd" d="M21.9417 2C22.5043 2 23.0669 2 23.6296 2C23.6296 4.22152 23.6296 6.44304 23.6296 8.6715C24.1975 8.6715 24.7565 8.6715 25.3201 8.6715C25.3201 9.78468 25.3201 10.8909 25.3201 12.0041C25.8838 12.0041 26.4429 12.0041 27 12.0041C27 14.23 27 16.449 27 18.6727C26.4373 18.6727 25.8798 18.6727 25.3154 18.6727C25.3154 19.7852 25.3154 20.8929 25.3154 22.0076C24.7495 22.0076 24.1905 22.0076 23.6268 22.0076C23.6268 22.5651 23.6268 23.1157 23.6268 23.6732C23.063 23.6732 22.504 23.6732 21.9403 23.6732C21.9403 24.2307 21.9403 24.7813 21.9403 25.3388C20.814 25.3388 19.6924 25.3388 18.5639 25.3388C18.5639 25.8978 18.5639 26.4499 18.5639 27C15.185 27 11.8131 27 8.43644 27C8.43644 26.4443 8.43644 25.8936 8.43644 25.3362C7.31012 25.3362 6.18856 25.3362 5.05998 25.3362C5.05998 24.7772 5.05998 24.2251 5.05998 23.6684C4.49549 23.6684 3.938 23.6684 3.37354 23.6684C3.37354 23.1116 3.37354 22.5595 3.37354 22.0027C2.80906 22.0027 2.25157 22.0027 1.6871 22.0027C1.6871 21.4459 1.6871 20.8938 1.6871 20.3371C1.12006 20.3371 0.560032 20.3371 0 20.3371C0 17.0031 0 13.6691 0 10.335C0.561477 10.335 1.12297 10.335 1.68782 10.335C1.68782 7.55074 1.68782 4.77538 1.68782 2C2.81304 2 3.93825 2 5.06347 2C5.06347 2.55458 5.06347 3.10917 5.06347 3.66837C5.63004 3.66837 6.1875 3.66837 6.75187 3.66837C6.75187 4.22504 6.75187 4.77713 6.75187 5.33604C7.31777 5.33604 7.87676 5.33604 8.44263 5.33604C8.44263 5.89498 8.44263 6.44705 8.44263 6.99782C11.8198 6.99782 15.1899 6.99782 18.5671 6.99782C18.5671 6.44257 18.5671 5.89048 18.5671 5.33157C19.133 5.33157 19.692 5.33157 20.2556 5.33157C20.2556 4.77413 20.2556 4.22355 20.2556 3.66613C20.8192 3.66613 21.3782 3.66613 21.9417 3.66613C21.9417 3.10617 21.9417 2.55309 21.9417 2Z" fill="white"/>
<path d="M49.5957 5.25195V7.67969H33.3535V5.25195H39.9707V3.33984H43.0215V5.25195H49.5957ZM32.5156 18.4219V15.9727H50.541V18.4219H46.5449V23.084H43.4082V18.4219H39.6484V23.084H36.5332V18.4219H32.5156ZM34.5781 11.7402C34.5781 9.53809 37.167 8.3457 41.4961 8.3457C45.8037 8.3457 48.4033 9.53809 48.4141 11.7402C48.4033 13.9316 45.8037 15.1455 41.4961 15.1562C37.167 15.1455 34.5781 13.9316 34.5781 11.7402ZM37.8008 11.7402C37.79 12.5029 38.9609 12.8359 41.4961 12.8359C44.0098 12.8359 45.1914 12.5029 45.2129 11.7402C45.1914 10.9453 44.0098 10.6445 41.4961 10.623C38.9609 10.6445 37.79 10.9453 37.8008 11.7402ZM69.5547 18.25V20.7637H51.5293V18.25H69.5547ZM52.2168 13.0938C56.6748 12.4277 58.7158 9.91406 58.8662 7.37891H53.0332V4.92969H67.9648V7.37891H62.1533C62.2822 9.91406 64.334 12.3203 68.9531 13.0078L67.75 15.457C64.2158 14.8555 61.7881 13.2441 60.5312 11.042C59.2959 13.2979 56.9111 14.9844 53.4199 15.5859L52.2168 13.0938Z" fill="white"/>
<path d="M83.2617 8.75391C83.251 11.9121 84.8838 15.2959 88.1602 16.6602L86.6777 18.8086C84.3789 17.8311 82.7891 15.8867 81.9082 13.5234C81.0273 16.0908 79.4053 18.2393 77.0957 19.3027L75.5273 17.1328C78.7715 15.6826 80.4473 12.0625 80.4473 8.75391V7.55078H76.3008V5.31641H87.3438V7.55078H83.2617V8.75391ZM89.2773 22.9766V3.42578H92.0488V22.9766H89.2773ZM102.189 6.19727C102.168 8.63574 103.564 11.0098 106.787 11.9766L105.412 14.125C103.188 13.416 101.642 12.0195 100.771 10.2363C99.8906 12.1592 98.3008 13.6846 96.002 14.4258L94.627 12.2773C97.8926 11.2354 99.332 8.68945 99.332 6.19727V4.32812H102.189V6.19727ZM97.6133 18.1211V15.9297H111.062V22.9766H108.312V18.1211H97.6133ZM108.312 15.0918V3.42578H111.062V15.0918H108.312ZM130.227 3.42578V23.0195H127.477V12.4707H123.975V10.2363H127.477V3.42578H130.227ZM113.404 17.1758C116.681 15.6719 118.281 11.9443 118.281 8.32422V7.50781H114.221V5.31641H125.156V7.50781H121.096V8.32422C121.085 11.7617 122.675 15.3496 125.973 16.7676L124.361 18.9375C122.084 17.8848 120.559 15.833 119.721 13.3408C118.872 16.0049 117.314 18.2178 115.037 19.3457L113.404 17.1758ZM143.826 4.73633V6.92773H139.938C139.948 9.20508 141.334 11.4072 144.449 12.3203L143.139 14.4688C140.979 13.8135 139.476 12.4922 138.616 10.8271C137.746 12.793 136.156 14.3613 133.814 15.1348L132.418 12.9648C135.662 11.9443 137.134 9.40918 137.166 6.92773H133.17V4.73633H143.826ZM135.125 19.1738C135.114 16.7891 137.692 15.4033 141.828 15.4141C145.899 15.4033 148.413 16.7891 148.424 19.1738C148.413 21.5693 145.899 22.9873 141.828 22.9766C137.692 22.9873 135.114 21.5693 135.125 19.1738ZM137.875 19.1738C137.854 20.291 139.261 20.8496 141.828 20.8496C144.363 20.8496 145.717 20.291 145.717 19.1738C145.717 18.0781 144.363 17.5303 141.828 17.541C139.261 17.5303 137.854 18.0781 137.875 19.1738ZM145.48 15.0273V3.42578H148.23V7.95898H150.873V10.1934H148.23V15.0273H145.48ZM169.629 18.4434V20.6348H151.732V18.4434H159.209V14.0176H161.938V18.4434H169.629ZM152.162 12.3633C156.588 11.6758 159.08 8.7002 159.102 5.93945V4.54297H162.023V5.93945C162.013 8.73242 164.537 11.6758 169.006 12.3633L167.846 14.6406C164.408 14.0176 161.852 12.1807 160.562 9.74219C159.284 12.1699 156.738 14.0283 153.322 14.6406L152.162 12.3633Z" fill="#92A0B3"/>
</svg>
