<svg width="16" height="16" viewBox="0 0 16 16" fill="#92A0B3" xmlns="http://www.w3.org/2000/svg">
<path fill-rule="evenodd" clip-rule="evenodd" d="M14.2222 16H1.77778C0.795938 16 0 15.2041 0 14.2222V1.77778C0 0.795938 0.795938 0 1.77778 0H14.2222C15.2041 0 16 0.795938 16 1.77778V14.2222C16 15.2041 15.2041 16 14.2222 16ZM11.4035 13.7778H13.7778V8.90027C13.7778 6.83655 12.6079 5.83871 10.9739 5.83871C9.33912 5.83871 8.65113 7.11176 8.65113 7.11176V6.07407H6.36296V13.7778H8.65113V9.7338C8.65113 8.65025 9.14991 8.00545 10.1046 8.00545C10.9822 8.00545 11.4035 8.62506 11.4035 9.7338V13.7778ZM2.22222 3.64378C2.22222 4.42881 2.85379 5.06534 3.63319 5.06534C4.41259 5.06534 5.04378 4.42881 5.04378 3.64378C5.04378 2.85875 4.41259 2.22222 3.63319 2.22222C2.85379 2.22222 2.22222 2.85875 2.22222 3.64378ZM4.83765 13.7778H2.45168V6.07407H4.83765V13.7778Z"/>
</svg>
