<svg width="96" height="100" viewBox="0 0 96 100" fill="none" xmlns="http://www.w3.org/2000/svg">
<path fill-rule="evenodd" clip-rule="evenodd" d="M71.1366 16C72.6785 16 74.2205 16 75.7625 16C75.7625 22.0425 75.7625 28.0851 75.7625 34.1465C77.319 34.1465 78.8511 34.1465 80.3959 34.1465C80.3959 37.1743 80.3959 40.1833 80.3959 43.2111C81.9409 43.2111 83.473 43.2111 85 43.2111C85 49.2656 85 55.3014 85 61.3498C83.4579 61.3498 81.93 61.3498 80.383 61.3498C80.383 64.3756 80.383 67.3887 80.383 70.4205C78.8319 70.4205 77.2998 70.4205 75.7549 70.4205C75.7549 71.937 75.7549 73.4347 75.7549 74.9511C74.2098 74.9511 72.6776 74.9511 71.1327 74.9511C71.1327 76.4676 71.1327 77.9652 71.1327 79.4815C68.0458 79.4815 64.9718 79.4815 61.8787 79.4815C61.8787 81.0019 61.8787 82.5037 61.8787 84C52.618 84 43.3766 84 34.1221 84C34.1221 82.4884 34.1221 80.9907 34.1221 79.4745C31.0351 79.4745 27.9612 79.4745 24.8681 79.4745C24.8681 77.954 24.8681 76.4523 24.8681 74.938C23.321 74.938 21.793 74.938 20.246 74.938C20.246 73.4235 20.246 71.9217 20.246 70.4074C18.6989 70.4074 17.171 70.4074 15.6239 70.4074C15.6239 68.8929 15.6239 67.3912 15.6239 65.8769C14.0698 65.8769 12.5349 65.8769 11 65.8769C11 56.8083 11 47.7398 11 38.6713C12.5389 38.6713 14.0778 38.6713 15.6259 38.6713C15.6259 31.098 15.6259 23.549 15.6259 16C18.7098 16 21.7937 16 24.8777 16C24.8777 17.5085 24.8777 19.0169 24.8777 20.538C26.4305 20.538 27.9583 20.538 29.5051 20.538C29.5051 22.0521 29.5051 23.5538 29.5051 25.074C31.0561 25.074 32.5882 25.074 34.1391 25.074C34.1391 26.5943 34.1391 28.096 34.1391 29.5941C43.3949 29.5941 52.6317 29.5941 61.8875 29.5941C61.8875 28.0838 61.8875 26.5821 61.8875 25.0619C63.4386 25.0619 64.9706 25.0619 66.5153 25.0619C66.5153 23.5456 66.5153 22.0481 66.5153 20.5319C68.0601 20.5319 69.5921 20.5319 71.1366 20.5319C71.1366 19.0088 71.1366 17.5044 71.1366 16Z" fill="#176BFF"/>
</svg>
